<?xml version="1.0" encoding="UTF-8"?>
<svg version="1.1" xmlns="http://www.w3.org/2000/svg" width="757" height="757">
<path d="M0 0 C159.06 0 318.12 0 482 0 C482 249.81 482 499.62 482 757 C322.94 757 163.88 757 0 757 C0 507.19 0 257.38 0 0 Z M69 138 C69 297.06 69 456.12 69 620 C182.52 620 296.04 620 413 620 C413 460.94 413 301.88 413 138 C299.48 138 185.96 138 69 138 Z " fill="#008000" transform="translate(138,0)"/>
<path d="M0 0 C113.52 0 227.04 0 344 0 C344 159.06 344 318.12 344 482 C230.48 482 116.96 482 0 482 C0 322.94 0 163.88 0 0 Z " fill="#90EE90" transform="translate(207,138)"/>
</svg>
