<?xml version="1.0" encoding="UTF-8"?>
<svg version="1.1" xmlns="http://www.w3.org/2000/svg" width="757" height="757">
<path d="M0 0 C67.98 0 135.96 0 206 0 C206 22.77 206 45.54 206 69 C228.77 69 251.54 69 275 69 C275 114.21 275 159.42 275 206 C252.23 206 229.46 206 206 206 C206 251.54 206 297.08 206 344 C251.54 344 297.08 344 344 344 C344 366.77 344 389.54 344 413 C321.23 413 298.46 413 275 413 C275 435.77 275 458.54 275 482 C252.23 482 229.46 482 206 482 C206 504.44 206 526.88 206 550 C138.02 550 70.04 550 0 550 C0 527.56 0 505.12 0 482 C-22.77 482 -45.54 482 -69 482 C-69 459.23 -69 436.46 -69 413 C-91.77 413 -114.54 413 -138 413 C-138 390.23 -138 367.46 -138 344 C-92.46 344 -46.92 344 0 344 C0 298.46 0 252.92 0 206 C-22.77 206 -45.54 206 -69 206 C-69 160.79 -69 115.58 -69 69 C-46.23 69 -23.46 69 0 69 C0 46.23 0 23.46 0 0 Z " fill="#90EE90" transform="translate(276,207)"/>
<path d="M0 0 C22.77 0 45.54 0 69 0 C69 91.08 69 182.16 69 276 C46.23 276 23.46 276 0 276 C0 298.44 0 320.88 0 344 C-45.54 344 -91.08 344 -138 344 C-138 321.56 -138 299.12 -138 276 C-115.23 276 -92.46 276 -69 276 C-69 253.23 -69 230.46 -69 207 C-46.23 207 -23.46 207 0 207 C0 138.69 0 70.38 0 0 Z " fill="#008000" transform="translate(620,413)"/>
<path d="M0 0 C22.77 0 45.54 0 69 0 C69 68.31 69 136.62 69 207 C91.77 207 114.54 207 138 207 C138 229.77 138 252.54 138 276 C160.77 276 183.54 276 207 276 C207 298.44 207 320.88 207 344 C161.46 344 115.92 344 69 344 C69 321.56 69 299.12 69 276 C46.23 276 23.46 276 0 276 C0 184.92 0 93.84 0 0 Z " fill="#008000" transform="translate(69,413)"/>
<path d="M0 0 C22.77 0 45.54 0 69 0 C69 45.54 69 91.08 69 138 C23.46 138 -22.08 138 -69 138 C-69 115.23 -69 92.46 -69 69 C-46.23 69 -23.46 69 0 69 C0 46.23 0 23.46 0 0 Z " fill="#FFFFFF" transform="translate(551,413)"/>
<path d="M0 0 C22.77 0 45.54 0 69 0 C69 22.77 69 45.54 69 69 C91.77 69 114.54 69 138 69 C138 91.77 138 114.54 138 138 C92.46 138 46.92 138 0 138 C0 92.46 0 46.92 0 0 Z " fill="#FFFFFF" transform="translate(138,413)"/>
<path d="M0 0 C67.98 0 135.96 0 206 0 C206 22.77 206 45.54 206 69 C138.02 69 70.04 69 0 69 C0 46.23 0 23.46 0 0 Z " fill="#008000" transform="translate(276,138)"/>
<path d="M0 0 C22.77 0 45.54 0 69 0 C69 45.21 69 90.42 69 137 C46.23 137 23.46 137 0 137 C0 91.79 0 46.58 0 0 Z " fill="#008000" transform="translate(551,276)"/>
<path d="M0 0 C22.77 0 45.54 0 69 0 C69 45.21 69 90.42 69 137 C46.23 137 23.46 137 0 137 C0 91.79 0 46.58 0 0 Z " fill="#008000" transform="translate(138,276)"/>
<path d="M0 0 C22.77 0 45.54 0 69 0 C69 22.77 69 45.54 69 69 C46.23 69 23.46 69 0 69 C0 46.23 0 23.46 0 0 Z " fill="#000000" transform="translate(482,413)"/>
<path d="M0 0 C22.77 0 45.54 0 69 0 C69 22.77 69 45.54 69 69 C46.23 69 23.46 69 0 69 C0 46.23 0 23.46 0 0 Z " fill="#000000" transform="translate(207,413)"/>
<path d="M0 0 C22.77 0 45.54 0 69 0 C69 22.77 69 45.54 69 69 C46.23 69 23.46 69 0 69 C0 46.23 0 23.46 0 0 Z " fill="#008000" transform="translate(482,207)"/>
<path d="M0 0 C22.77 0 45.54 0 69 0 C69 22.77 69 45.54 69 69 C46.23 69 23.46 69 0 69 C0 46.23 0 23.46 0 0 Z " fill="#008000" transform="translate(207,207)"/>
<path d="M0 0 C22.77 0 45.54 0 69 0 C69 22.77 69 45.54 69 69 C46.23 69 23.46 69 0 69 C0 46.23 0 23.46 0 0 Z " fill="#FF0000" transform="translate(344,69)"/>
<path d="M0 0 C22.77 0 45.54 0 69 0 C69 22.77 69 45.54 69 69 C46.23 69 23.46 69 0 69 C0 46.23 0 23.46 0 0 Z " fill="#FF0000" transform="translate(413,0)"/>
<path d="M0 0 C22.44 0 44.88 0 68 0 C68 22.77 68 45.54 68 69 C45.56 69 23.12 69 0 69 C0 46.23 0 23.46 0 0 Z " fill="#FF0000" transform="translate(276,0)"/>
</svg>
