<?xml version="1.0" encoding="UTF-8"?>
<svg version="1.1" xmlns="http://www.w3.org/2000/svg" width="757" height="757">
<path d="M0 0 C159.06 0 318.12 0 482 0 C482 136.29 482 272.58 482 413 C459.23 413 436.46 413 413 413 C413 458.54 413 504.08 413 551 C390.23 551 367.46 551 344 551 C344 596.54 344 642.08 344 689 C321.23 689 298.46 689 275 689 C275 711.44 275 733.88 275 757 C252.23 757 229.46 757 206 757 C206 734.56 206 712.12 206 689 C183.56 689 161.12 689 138 689 C138 643.46 138 597.92 138 551 C115.23 551 92.46 551 69 551 C69 505.46 69 459.92 69 413 C46.23 413 23.46 413 0 413 C0 276.71 0 140.42 0 0 Z M69 69 C69 159.75 69 250.5 69 344 C182.52 344 296.04 344 413 344 C413 253.25 413 162.5 413 69 C299.48 69 185.96 69 69 69 Z " fill="#008000" transform="translate(138,0)"/>
<path d="M0 0 C113.52 0 227.04 0 344 0 C344 90.75 344 181.5 344 275 C230.48 275 116.96 275 0 275 C0 184.25 0 93.5 0 0 Z " fill="#90EE90" transform="translate(207,69)"/>
</svg>
