<?xml version="1.0" encoding="UTF-8"?>
<svg version="1.1" xmlns="http://www.w3.org/2000/svg" width="757" height="757">
<path d="M0 0 C136.29 0 272.58 0 413 0 C413 22.77 413 45.54 413 69 C458.54 69 504.08 69 551 69 C551 114.21 551 159.42 551 206 C573.77 206 596.54 206 620 206 C620 342.29 620 478.58 620 619 C460.94 619 301.88 619 138 619 C138 596.56 138 574.12 138 551 C115.23 551 92.46 551 69 551 C69 528.23 69 505.46 69 482 C46.23 482 23.46 482 0 482 C0 322.94 0 163.88 0 0 Z M138 69 C138 182.52 138 296.04 138 413 C160.77 413 183.54 413 207 413 C207 435.77 207 458.54 207 482 C320.52 482 434.04 482 551 482 C551 413.69 551 345.38 551 275 C528.23 275 505.46 275 482 275 C482 229.79 482 184.58 482 138 C436.46 138 390.92 138 344 138 C344 115.23 344 92.46 344 69 C276.02 69 208.04 69 138 69 Z " fill="#008000" transform="translate(0,138)"/>
<path d="M0 0 C67.98 0 135.96 0 206 0 C206 22.77 206 45.54 206 69 C251.54 69 297.08 69 344 69 C344 114.21 344 159.42 344 206 C366.77 206 389.54 206 413 206 C413 274.31 413 342.62 413 413 C299.48 413 185.96 413 69 413 C69 390.23 69 367.46 69 344 C46.23 344 23.46 344 0 344 C0 230.48 0 116.96 0 0 Z " fill="#90EE90" transform="translate(138,207)"/>
</svg>
